<!-- ── Cyberful Terminal Mark ───────────────────────────────────
     Draws a black terminal drive letter and muted prompt chevron on a
     transparent canvas, with no enclosing tile or background treatment.
     → mkdocs.yml — registers this asset for both logo and favicon.
     @docs/development/release.md
     ──────────────────────────────────────────────────────────── -->
<svg xmlns="http://www.w3.org/2000/svg" viewBox="8 12 48 40">
  <path d="M308-10Q235-10 180 17.5T94.5 94.5T64 210V520Q64 587 94.5 636T180 712.5T308 740Q382 740 436.5 712.5T521.5 636T552 520H402Q402 564 377.5 587T308 610T238.5 587T214 520V210Q214 167 238.5 143.5T308 120T377.5 143.5T402 210H552Q552 144 521.5 94.5T436.5 17.5T308-10Z" fill="#101522" transform="translate(11 45) scale(.036 -.036)"/>
  <path d="m38 21 12 11-12 11" fill="none" stroke="#8b95a5" stroke-linecap="round" stroke-linejoin="round" stroke-width="4.5"/>
</svg>
