<!-- ── Cyberful Terminal Mark ───────────────────────────────────
     Frames a JetBrains Mono drive letter and prompt chevron in a compact mark,
     using a product-blue to azure surface that remains legible at favicon sizes.
     → mkdocs.yml — registers this asset for both logo and favicon.
     @docs/development/release.md
     ──────────────────────────────────────────────────────────── -->
<svg xmlns="http://www.w3.org/2000/svg" viewBox="0 0 64 64">
  <defs>
    <linearGradient id="cyberful-blue" x1="8" x2="56" y1="56" y2="8" gradientUnits="userSpaceOnUse">
      <stop offset="0" stop-color="#1463ff"/>
      <stop offset="1" stop-color="#4fb8ff"/>
    </linearGradient>
  </defs>
  <rect width="60" height="60" x="2" y="2" rx="11.5" fill="url(#cyberful-blue)"/>
  <path d="M308-10Q235-10 180 17.5T94.5 94.5T64 210V520Q64 587 94.5 636T180 712.5T308 740Q382 740 436.5 712.5T521.5 636T552 520H402Q402 564 377.5 587T308 610T238.5 587T214 520V210Q214 167 238.5 143.5T308 120T377.5 143.5T402 210H552Q552 144 521.5 94.5T436.5 17.5T308-10Z" fill="#f8fafc" transform="translate(11 45) scale(.036 -.036)"/>
  <path d="m38 21 12 11-12 11" fill="none" stroke="#8bd2ff" stroke-linecap="round" stroke-linejoin="round" stroke-width="4.5"/>
</svg>
